<svg xmlns="http://www.w3.org/2000/svg" xmlns:xlink="http://www.w3.org/1999/xlink" viewBox="0 0 1621 1413.3"><defs><style>.cls-1{opacity:0.57;fill:url(#New_Gradient_Swatch_1);}.cls-2{fill:url(#linear-gradient);}.cls-3{fill:url(#linear-gradient-2);}.cls-4{fill:url(#linear-gradient-3);}.cls-5{fill:url(#linear-gradient-4);}.cls-6{fill:url(#New_Gradient_Swatch_1-2);}</style><linearGradient id="New_Gradient_Swatch_1" x1="837.79" y1="708.49" x2="1056.26" y2="891.8" gradientUnits="userSpaceOnUse"><stop offset="0" stop-color="#5d60e8" stop-opacity="0.9"/><stop offset="0.25" stop-color="#369aef"/><stop offset="0.52" stop-color="#3ca3ef"/><stop offset="0.81" stop-color="#63def2"/><stop offset="1" stop-color="#9af3f4"/></linearGradient><linearGradient id="linear-gradient" x1="561.7" y1="563" x2="996.48" y2="814.02" gradientUnits="userSpaceOnUse"><stop offset="0" stop-color="#6c5be3"/><stop offset="0.25" stop-color="#369aef"/><stop offset="0.52" stop-color="#3ca3ef"/><stop offset="0.81" stop-color="#63def2"/><stop offset="1" stop-color="#9af3f4"/></linearGradient><linearGradient id="linear-gradient-2" x1="530.44" y1="938.61" x2="450.65" y2="938.61" xlink:href="#linear-gradient"/><linearGradient id="linear-gradient-3" x1="1621" y1="706.65" x2="0" y2="706.65" xlink:href="#linear-gradient"/><linearGradient id="linear-gradient-4" x1="366.38" y1="1133.81" x2="1238.31" y2="261.89" xlink:href="#New_Gradient_Swatch_1"/><linearGradient id="New_Gradient_Swatch_1-2" x1="1186.13" y1="1279.02" x2="1379.87" y2="1085.28" xlink:href="#New_Gradient_Swatch_1"/></defs><title>Asset 1</title><g id="Layer_2" data-name="Layer 2"><g id="Rings"><path class="cls-1" d="M1223.74,248.53c-5.93,56.47-23.35,125.26-51,201.75q-11,30.44-24.16,62.41-1.83,4.42-3.69,8.89c-38.81,92.84-90.69,194-153.73,296.52q-31.25,50.79-63.55,97.95,47.91-2.34,93.51-6.53,16.9-25.9,33.44-52.78c52-84.57,96.47-168.89,132.68-249.82q16.38-36.58,30.49-72.15,14.2-35.79,26-70.29c18.39-53.51,32.46-104.37,42-151.46A620.13,620.13,0,0,0,1223.74,248.53ZM791.05,1094.64c-72.25,83.87-142.44,148.71-203.22,187.91a610.88,610.88,0,0,0,85.28,26.13c70.49-55.44,145.52-131,219.33-222.07q37.92-46.78,75.2-98.85Q921.25,991,873,992.3C845.68,1028.87,818.22,1063.1,791.05,1094.64Z"/><path class="cls-2" d="M1285.73,313a620.13,620.13,0,0,0-62-64.49c7.79-74.1-4.21-127-38.8-148.27s-87-8.17-149.44,32C975.25,171,905.73,235,834.1,317.83c-27.44,31.72-55.2,66.2-82.86,103.08q-28.32,37.77-56.39,78.77-32,46.8-63.14,97.36C568.45,699.9,516.42,801.45,477.55,894.57q-1.47,3.54-2.93,7.06-13,31.62-24,61.8c-28,77-45.57,146.29-51.55,203.1-7.79,74.14,4.2,127.07,38.8,148.35s87.27,8.1,149.93-32.33a610.88,610.88,0,0,0,85.28,26.13C556,1400.8,451.47,1437.36,385.89,1397s-80.16-150.5-50.58-296.91c9.5-47,23.56-97.84,41.93-151.29q11.43-33.27,25.08-67.84,14.85-37.58,32.25-76.38c36.07-80.39,80.25-164.09,131.89-248q15.69-25.5,31.73-50.15,27.16-41.75,55.17-80.87,37.53-52.5,76-99.8c73.29-90.3,147.77-165.33,217.79-220.52,117.39-92.56,222.25-129.37,288-88.94S1315.26,166.7,1285.73,313Z"/><path class="cls-3" d="M450.65,963.43q38.76,6.81,79.79,12.16a389.36,389.36,0,0,1-55.82-74Q461.6,933.25,450.65,963.43Z"/><path class="cls-4" d="M402.32,881q-13.63,34.53-25.08,67.84c-55.1-12.34-105.69-27-150.72-43.5C86.25,853.81,0,783.79,0,706.65S86.4,559.36,226.9,507.84a611.49,611.49,0,0,0-23.07,89c-67.59,32.26-106.61,70.3-106.61,111s39.14,78.9,106.92,111.17C255.36,843.5,322.93,864.57,402.32,881Zm251-455.44q-27.95,39.09-55.17,80.87c-45.59,4.2-89.21,9.71-130.35,16.4-108.13,17.54-199.2,43.15-264,74.07a611.49,611.49,0,0,1,23.07-89c83.84-30.74,186.94-54.88,302.44-70C569.29,432.63,610.72,428.49,653.36,425.54Zm765,172.18c-51.54-24.85-120-46.3-200.61-63q-30.57-6.32-63.39-11.67-4.69-.78-9.45-1.52c-99.79-15.74-213.71-24.65-334.67-24.65-39.27,0-77.81.94-115.35,2.75q28-40.95,56.39-78.77,29.35-.77,59.26-.76c99.29,0,194.41,6.31,282.31,17.86q41.06,5.39,79.91,12.27,36.62,6.48,71,14.2c55.41,12.41,106.26,27.13,151.48,43.78A611.24,611.24,0,0,1,1418.32,597.72Zm-23.08-89.46a611.24,611.24,0,0,1,23.08,89.46c66.51,32.08,104.86,69.81,104.86,110.2S1484.71,786.16,1418,818.26c-65,31.27-156.72,57.14-265.8,74.82-41.38,6.71-85.26,12.24-131.12,16.44q-45.52,4.17-93.51,6.53c-38.19,1.88-77.41,2.85-117.39,2.85-120.14,0-233.34-8.79-332.65-24.33q-1.47,3.54-2.93,7.06a389.36,389.36,0,0,0,55.82,74c87.28,11.35,181.62,17.56,280.06,17.56q31.56,0,62.54-.85,48.15-1.29,94.6-4.54c42.66-3,84.11-7.1,124.07-12.32,116.18-15.2,219.82-39.53,303.92-70.54C1535.22,853.43,1621,783.58,1621,706.65S1535.06,559.74,1395.24,508.26Z"/></g><g id="Quantum"><path class="cls-5" d="M1418.32,597.72A613.85,613.85,0,0,0,1285.73,313,619.26,619.26,0,0,0,1035.5,132.27C975.25,171,905.73,235,834.1,317.83a389.64,389.64,0,0,1,314.46,194.86q3,5.16,5.76,10.41a389.58,389.58,0,0,1-2.1,370c109.08-17.68,200.83-43.55,265.8-74.82a623.44,623.44,0,0,0,.3-220.54ZM892.44,1086.61a390.19,390.19,0,0,1-81.44,8.54q-10,0-20-.51a389.58,389.58,0,0,1-316.43-193q-13,31.62-24,61.8c-28,77-45.57,146.29-51.55,203.1a617.41,617.41,0,0,0,702.66,85,193.55,193.55,0,0,1-12.76-69.33c0-107.14,86.86-194,194-194a193.5,193.5,0,0,1,70.47,13.2,613.28,613.28,0,0,0,42.16-96.45c-84.1,31-187.74,55.34-303.92,70.54A388.32,388.32,0,0,1,892.44,1086.61ZM226.52,905.32a615.62,615.62,0,0,0,108.79,194.79c9.5-47,23.56-97.84,41.93-151.29C322.14,936.48,271.55,921.85,226.52,905.32ZM811,90.15c-271,0-501.22,174.73-584.1,417.69a611.49,611.49,0,0,0-23.07,89,623.17,623.17,0,0,0,.31,222.21C255.36,843.5,322.93,864.57,402.32,881q14.85-37.58,32.25-76.38A389.31,389.31,0,0,1,729.34,325.74c73.29-90.3,147.77-165.33,217.79-220.52A618.68,618.68,0,0,0,811,90.15Z"/><path class="cls-6" d="M1420,1182.15a136.85,136.85,0,1,1-96.74-131A137,137,0,0,1,1420,1182.15Z"/></g></g></svg>