<svg xmlns="http://www.w3.org/2000/svg" xmlns:xlink="http://www.w3.org/1999/xlink" viewBox="0 0 2149.47 396.05"><defs><style>.cls-1{font-size:300px;fill:#282828;font-family:Avenir-Heavy, "Avenir 85 Heavy";font-weight:800;}.cls-2{opacity:0.57;isolation:isolate;fill:url(#linear-gradient);}.cls-3{fill:url(#linear-gradient-2);}.cls-4{fill:url(#linear-gradient-3);}.cls-5{fill:url(#linear-gradient-4);}.cls-6{fill:url(#linear-gradient-5);}.cls-7{fill:url(#linear-gradient-6);}</style><linearGradient id="linear-gradient" x1="-959.22" y1="4300.9" x2="-898" y2="4249.53" gradientTransform="matrix(1, 0, 0, -1, 1194, 4499.44)" gradientUnits="userSpaceOnUse"><stop offset="0" stop-color="#5d60e8" stop-opacity="0.9"/><stop offset="0.25" stop-color="#369aef"/><stop offset="0.52" stop-color="#3ca3ef"/><stop offset="0.81" stop-color="#63def2"/><stop offset="1" stop-color="#9af3f4"/></linearGradient><linearGradient id="linear-gradient-2" x1="-1036.59" y1="4341.67" x2="-914.75" y2="4271.33" gradientTransform="matrix(1, 0, 0, -1, 1194, 4499.44)" gradientUnits="userSpaceOnUse"><stop offset="0" stop-color="#6c5be3"/><stop offset="0.25" stop-color="#369aef"/><stop offset="0.52" stop-color="#3ca3ef"/><stop offset="0.81" stop-color="#63def2"/><stop offset="1" stop-color="#9af3f4"/></linearGradient><linearGradient id="linear-gradient-3" x1="-1045.35" y1="4236.42" x2="-1067.71" y2="4236.42" xlink:href="#linear-gradient-2"/><linearGradient id="linear-gradient-4" x1="-739.73" y1="4301.42" x2="-1194" y2="4301.42" xlink:href="#linear-gradient-2"/><linearGradient id="linear-gradient-5" x1="-1091.34" y1="4181.7" x2="-846.99" y2="4426.05" xlink:href="#linear-gradient"/><linearGradient id="linear-gradient-6" x1="-861.61" y1="4141.02" x2="-807.31" y2="4195.31" xlink:href="#linear-gradient"/></defs><title>Asset 3</title><g id="Layer_2" data-name="Layer 2"><g id="Quantum"><text class="cls-1" transform="translate(555.28 299.77)">QUANTUM</text><g id="Rings"><path class="cls-2" d="M342.93,69.64c-1.66,15.83-6.54,35.1-14.29,56.54q-3.08,8.53-6.77,17.49l-1,2.49a611.63,611.63,0,0,1-43.08,83.09Q269,243.49,260,256.7q13.43-.65,26.2-1.83,4.74-7.26,9.37-14.79a610.23,610.23,0,0,0,37.19-70q4.59-10.24,8.54-20.21t7.29-19.7a340.37,340.37,0,0,0,11.77-42.45A174.48,174.48,0,0,0,342.93,69.64ZM221.68,306.75c-20.25,23.5-39.92,41.67-57,52.66a170.36,170.36,0,0,0,23.9,7.32c19.75-15.53,40.78-36.71,61.46-62.23q10.64-13.11,21.08-27.7-13,.9-26.53,1.27C237,288.32,229.29,297.91,221.68,306.75Z"/><path class="cls-3" d="M360.31,87.71a172.5,172.5,0,0,0-17.38-18.07c2.18-20.77-1.18-35.59-10.87-41.55s-24.38-2.29-41.88,9c-16.88,10.86-36.36,28.8-56.44,52C226.05,98,218.27,107.61,210.52,118q-7.94,10.58-15.8,22.07-9,13.13-17.69,27.29a609.8,609.8,0,0,0-43.2,83.37l-.83,2q-3.63,8.86-6.72,17.32c-7.85,21.58-12.77,41-14.45,56.92-2.18,20.77,1.18,35.61,10.88,41.57s24.45,2.27,42-9.06a170.77,170.77,0,0,0,23.9,7.32c-32.81,25.82-62.1,36.06-80.48,24.75S85.68,349.31,94,308.28a336.54,336.54,0,0,1,11.75-42.4q3.19-9.31,7-19,4.17-10.53,9-21.4a609.55,609.55,0,0,1,37-69.5q4.39-7.16,8.89-14.06,7.62-11.7,15.46-22.66,10.53-14.72,21.3-28C224.93,66,245.8,45,265.42,29.49c32.9-25.94,62.29-36.26,80.71-24.93S368.58,46.71,360.31,87.71Z"/><path class="cls-4" d="M126.29,270q10.86,1.9,22.36,3.41A109.41,109.41,0,0,1,133,252.65Q129.35,261.53,126.29,270Z"/><path class="cls-5" d="M112.74,246.88q-3.81,9.68-7,19A337.32,337.32,0,0,1,63.48,253.7C24.17,239.26,0,219.64,0,198s24.21-41.27,63.59-55.71a171.74,171.74,0,0,0-6.47,24.94c-18.94,9-29.88,19.7-29.88,31.11s11,22.11,30,31.15C71.56,236.37,90.5,242.28,112.74,246.88Zm70.34-127.63q-7.83,10.95-15.46,22.66c-12.77,1.18-25,2.72-36.53,4.6-30.3,4.91-55.82,12.09-74,20.76a171.41,171.41,0,0,1,6.47-24.94C87.07,133.71,116,127,148.33,122.71c11.2-1.48,22.81-2.64,34.76-3.46ZM397.45,167.5c-14.45-7-33.63-13-56.22-17.65q-8.57-1.77-17.76-3.27l-2.65-.43A609.59,609.59,0,0,0,227,139.24c-11,0-21.8.27-32.32.77q7.84-11.47,15.8-22.07c5.48-.14,11-.22,16.61-.21a609.94,609.94,0,0,1,79.11,5q11.5,1.51,22.39,3.44,10.26,1.81,19.9,4A335.75,335.75,0,0,1,391,142.42a172,172,0,0,1,6.48,25.08ZM391,142.43a170.54,170.54,0,0,1,6.47,25.07c18.64,9,29.39,19.56,29.39,30.88s-10.78,21.92-29.48,30.92c-18.21,8.76-43.92,16-74.49,21-11.59,1.88-23.89,3.43-36.74,4.6Q273.4,256,260,256.7c-10.71.53-21.7.8-32.9.8a609.65,609.65,0,0,1-93.22-6.82l-.82,2a109.36,109.36,0,0,0,15.64,20.74,612,612,0,0,0,78.48,4.92q8.85,0,17.53-.24,13.48-.36,26.51-1.27c11.95-.84,23.57-2,34.77-3.45,32.55-4.26,61.6-11.08,85.17-19.77,39.12-14.44,63.16-34,63.16-55.57S430.18,156.85,391,142.43Z"/></g><g id="Quantum-2" data-name="Quantum"><path class="cls-6" d="M397.45,167.5A173.17,173.17,0,0,0,290.17,37.06c-16.89,10.85-36.37,28.79-56.44,52a109.19,109.19,0,0,1,88.12,54.61c.56,1,1.1,1.93,1.62,2.92a109.19,109.19,0,0,1-.59,103.68c30.57-5,56.28-12.2,74.48-21a174.82,174.82,0,0,0,.09-61.8Zm-147.36,137a108.7,108.7,0,0,1-22.82,2.39c-1.87,0-3.74,0-5.6-.14A109.18,109.18,0,0,1,133,252.67q-3.65,8.85-6.72,17.31c-7.85,21.58-12.77,41-14.45,56.92a173,173,0,0,0,196.91,23.82,54.41,54.41,0,0,1,70.54-70.1,171.56,171.56,0,0,0,11.81-27c-23.57,8.68-52.61,15.5-85.17,19.76A108.77,108.77,0,0,1,250.09,304.5ZM63.48,253.7A172.22,172.22,0,0,0,94,308.28a336.42,336.42,0,0,1,11.75-42.39A337.32,337.32,0,0,1,63.48,253.7ZM227.27,25.26A172.88,172.88,0,0,0,57.21,229.52c14.35,6.85,33.29,12.76,55.53,17.36q4.17-10.53,9-21.4a109.1,109.1,0,0,1,78-133.11c1.52-.4,3-.76,4.59-1.09C224.92,66,245.8,45,265.42,29.48A173.63,173.63,0,0,0,227.27,25.26Z"/><path class="cls-7" d="M397.93,331.27a38.33,38.33,0,1,1-27.11-36.71A38.35,38.35,0,0,1,397.93,331.27Z"/></g></g></g></svg>